<svg xmlns="http://www.w3.org/2000/svg" xmlns:xlink="http://www.w3.org/1999/xlink" version="1.1" id="Layer_1" x="0px" y="0px" style="enable-background:new 0 0 3000 3000;" xml:space="preserve" viewBox="64.49 996.1 2813.81 1020.2">
<style type="text/css">
	.st0{fill:#0C9D58;}
	.st1{opacity:0.2;fill:#004D40;enable-background:new    ;}
	.st2{opacity:0.2;fill:#FFFFFF;enable-background:new    ;}
	.st3{fill:#EA4335;}
	.st4{opacity:0.2;fill:#3E2723;enable-background:new    ;}
	.st5{fill:#FFC107;}
	.st6{fill:#4285F4;}
	.st7{fill:#FFFFFF;}
	.st8{opacity:0.2;fill:#1A237E;enable-background:new    ;}
	.st9{opacity:0.2;}
	.st10{fill:#1A237E;}
	.st11{fill:url(#SVGID_1_);}
	.st12{fill:#4285F4;stroke:#4285F4;stroke-width:20;stroke-miterlimit:10;}
	.st13{fill:#EA4335;stroke:#EA4335;stroke-width:20;stroke-miterlimit:10;}
	.st14{fill:#FBBC04;stroke:#FBBC04;stroke-width:20;stroke-miterlimit:10;}
	.st15{fill:#34A853;stroke:#34A853;stroke-width:20;stroke-miterlimit:10;}
	.st16{fill:#5F6368;stroke:#5F6368;stroke-width:20;stroke-miterlimit:10;}
</style>
<image style="display:none;overflow:visible;" width="135" height="48" xlink:href="2E29B886.png" transform="matrix(21.3538 0 0 21.3538 59.1176 987.5085)">
</image>
<g>
	<path class="st0" d="M1056.1,1688c0,17.4-14.3,31.6-31.8,31.6h-673c-17.5,0-31.8-14.2-31.8-31.6v-660.3c0-17.4,14.3-31.6,31.8-31.6   h673c17.5,0,31.8,14.2,31.8,31.6L1056.1,1688L1056.1,1688z"/>
	<polygon class="st1" points="1056.1,1165.9 803.9,1133.4 1056.1,1201.1  "/>
	<path class="st1" d="M700,1030.6l-382,170.6l422.2-153.7v-0.4C732.7,1031.2,714.6,1023.7,700,1030.6z"/>
	<path class="st2" d="M1024.3,996.2h-673c-17.5,0-31.8,14.2-31.8,31.6v7.1c0-17.4,14.3-31.6,31.8-31.6h673   c17.5,0,31.8,14.2,31.8,31.6v-7.1C1056.1,1010.4,1041.8,996.2,1024.3,996.2z"/>
	<path class="st3" d="M482.8,1667.7c-4.5,17,4.5,34.3,20.2,38.4l623.3,167.6c15.6,4.2,32.2-6.3,36.7-23.2l146.8-548   c4.5-17-4.5-34.3-20.2-38.4l-623.3-167.6c-15.6-4.2-32.2,6.3-36.7,23.2L482.8,1667.7z"/>
	<polygon class="st4" points="1169.4,1498.2 1202.2,1697.3 1169.4,1819.8  "/>
	<polygon class="st4" points="806.8,1141.6 836.2,1149.5 854.4,1272.4  "/>
	<path class="st2" d="M1289.7,1264.1l-623.3-167.6c-15.6-4.2-32.2,6.3-36.7,23.2l-146.8,548c-0.2,0.9-0.3,1.8-0.5,2.8l145.7-543.9   c4.5-17,21.1-27.4,36.7-23.2l623.3,167.6c14.8,4,23.6,19.7,20.6,35.7l1.1-4.2C1314.4,1285.6,1305.4,1268.3,1289.7,1264.1z"/>
	<path class="st5" d="M973.7,1600.2c6,16.5-1.5,34.5-16.7,40.1l-657.8,239.4c-15.2,5.5-32.6-3.4-38.6-19.9L66.6,1326.6   c-6-16.5,1.5-34.5,16.7-40.1l657.8-239.4c15.2-5.5,32.6,3.4,38.6,19.9L973.7,1600.2z"/>
	<path class="st2" d="M69.1,1333.3c-6-16.5,1.5-34.5,16.7-40.1l657.8-239.4c15.1-5.5,32.2,3.3,38.3,19.4l-2.3-6.2   c-6-16.5-23.4-25.5-38.6-19.9L83.3,1286.6c-15.2,5.5-22.8,23.6-16.7,40.1l194.1,533.1c0.1,0.2,0.2,0.3,0.2,0.5L69.1,1333.3z"/>
	<path class="st6" d="M1169.4,1984.2c0,17.5-14.3,31.9-31.9,31.9H238.1c-17.5,0-31.9-14.3-31.9-31.9v-679.9   c0-17.5,14.3-31.9,31.9-31.9h899.5c17.5,0,31.9,14.3,31.9,31.9V1984.2z"/>
	<path class="st7" d="M997.7,1541.5H728.5v-70.8h269.1c7.8,0,14.2,6.3,14.2,14.2v42.5C1011.8,1535.2,1005.5,1541.5,997.7,1541.5z"/>
	<path class="st7" d="M997.7,1810.7H728.5v-70.8h269.1c7.8,0,14.2,6.3,14.2,14.2v42.5C1011.8,1804.3,1005.5,1810.7,997.7,1810.7z"/>
	<path class="st7" d="M1040.2,1676.1H728.5v-70.8h311.6c7.8,0,14.2,6.3,14.2,14.2v42.5C1054.3,1669.8,1048,1676.1,1040.2,1676.1z"/>
	<path class="st8" d="M1137.5,2009H238.1c-17.5,0-31.9-14.3-31.9-31.9v7.1c0,17.5,14.3,31.9,31.9,31.9h899.5   c17.5,0,31.9-14.3,31.9-31.9v-7.1C1169.4,1994.6,1155.1,2009,1137.5,2009z"/>
	<path class="st2" d="M238.1,1279.5h899.5c17.5,0,31.9,14.3,31.9,31.9v-7.1c0-17.5-14.3-31.9-31.9-31.9H238.1   c-17.5,0-31.9,14.3-31.9,31.9v7.1C206.2,1293.8,220.5,1279.5,238.1,1279.5z"/>
	<path class="st7" d="M487.7,1612.4v63.9h91.7c-7.6,38.9-41.8,67.1-91.7,67.1c-55.6,0-100.8-47.1-100.8-102.7   c0-55.6,45.1-102.7,100.8-102.7c25.1,0,47.5,8.6,65.2,25.5v0l48.5-48.5c-29.5-27.5-67.9-44.3-113.7-44.3c-93.9,0-170,76.1-170,170   c0,93.9,76.1,170,170,170c98.2,0,162.8-69,162.8-166.1c0-11.1-1-21.9-2.7-32.2H487.7z"/>
	<g class="st9">
		<path class="st10" d="M489.5,1676.2v7.1h89.9c0.7-2.3,1.2-4.7,1.7-7.1H489.5z"/>
		<path class="st10" d="M489.5,1810.7c-92.7,0-168-74.2-169.9-166.4c0,1.2-0.1,2.4-0.1,3.5c0,93.9,76.1,170,170,170    c98.2,0,162.8-69,162.8-166.1c0-0.8-0.1-1.5-0.1-2.3C650,1743.9,586,1810.7,489.5,1810.7z"/>
		<path class="st10" d="M554.7,1563.5c-17.7-16.9-40.2-25.5-65.2-25.5c-55.6,0-100.8,47.1-100.8,102.7c0,1.2,0.1,2.4,0.2,3.5    c1.9-54.1,46.1-99.2,100.6-99.2c25.1,0,47.5,8.6,65.2,25.5v0l52-52c-1.2-1.1-2.6-2.2-3.8-3.3L554.7,1563.5L554.7,1563.5z"/>
	</g>
	<path class="st8" d="M1011.8,1534.4v-7.1c0,7.8-6.3,14.2-14.2,14.2H728.5v7.1h269.1C1005.5,1548.6,1011.8,1542.3,1011.8,1534.4z"/>
	<path class="st8" d="M997.7,1810.7H728.5v7.1h269.1c7.8,0,14.2-6.3,14.2-14.2v-7.1C1011.8,1804.3,1005.5,1810.7,997.7,1810.7z"/>
	<path class="st8" d="M1040.2,1676.1H728.5v7.1h311.6c7.8,0,14.2-6.3,14.2-14.2v-7.1C1054.3,1669.8,1048,1676.1,1040.2,1676.1z"/>
	
		<radialGradient id="SVGID_1_" cx="345.4713" cy="1921.197" r="1212.2389" gradientTransform="matrix(1 0 0 -1 0 3000)" gradientUnits="userSpaceOnUse">
		<stop offset="0" style="stop-color:#FFFFFF;stop-opacity:0.1"/>
		<stop offset="1" style="stop-color:#FFFFFF;stop-opacity:0"/>
	</radialGradient>
	<path class="st11" d="M1289.7,1264.1l-233.6-62.8v-173.5c0-17.4-14.3-31.6-31.8-31.6h-673c-17.5,0-31.8,14.2-31.8,31.6v172.9   l-236.1,86c-15.2,5.5-22.8,23.6-16.7,40.1l139.6,383.5v274.1c0,17.5,14.3,31.9,31.9,31.9h899.5c17.5,0,31.9-14.3,31.9-31.9v-157.3   l140.5-524.3C1314.4,1285.6,1305.4,1268.3,1289.7,1264.1z"/>
</g>
<g>
	<path class="st12" d="M1661.2,1451c-93.2,0-170-75-170-170c0-95.1,76.8-170,170-170l0,0c43.9,0,85.9,16.5,117,47.5l-32.9,32.9   c-21.9-21.9-53-34.7-84.1-32.9c-67.7,1.8-122.5,60.3-118.8,128c1.8,64,54.9,117,118.8,118.8c32.9,1.8,64-11,85.9-34.7   c14.6-16.5,23.8-36.6,25.6-58.5h-111.5v-45.7h157.2c1.8,9.1,1.8,18.3,1.8,29.3c1.8,40.2-12.8,80.5-40.2,109.7   C1749,1436.4,1706.9,1454.7,1661.2,1451z"/>
	<path class="st13" d="M2065.5,1341.3c0,60.3-49.4,107.9-109.7,106c-60.3,0-107.9-49.4-106-109.7c0-58.5,49.4-106,107.9-106   c58.5,0,107.9,47.5,107.9,106C2065.5,1339.5,2065.5,1341.3,2065.5,1341.3z M2017.9,1341.3c3.7-32.9-21.9-64-54.9-65.8   c-32.9-3.7-64,21.9-65.8,54.9c0,3.7,0,7.3,0,11c-3.7,32.9,21.9,64,54.9,65.8c32.9,3.7,64-21.9,65.8-54.9   C2017.9,1350.5,2017.9,1346.8,2017.9,1341.3z"/>
	<path class="st14" d="M2309.8,1341.3c0,60.3-49.4,107.9-109.7,106c-60.3,0-107.9-49.4-106-109.7c0-58.5,49.4-106,107.9-106   c58.5,0,107.9,47.5,107.9,106C2309.8,1339.5,2309.8,1341.3,2309.8,1341.3z M2262.3,1341.3c3.7-32.9-21.9-64-54.9-65.8   c-32.9-3.7-64,21.9-65.8,54.9c0,3.7,0,7.3,0,11c-3.7,32.9,21.9,64,54.9,65.8c32.9,3.7,64-21.9,65.8-54.9   C2264.1,1350.5,2264.1,1346.8,2262.3,1341.3z"/>
	<path class="st12" d="M2554.5,1238.9v197.5c0,80.5-47.5,113.4-104.2,113.4c-42.1,0-80.5-25.6-96.9-64l42.1-18.3   c9.1,21.9,31.1,38.4,54.9,38.4c36.6,0,58.5-21.9,58.5-64v-16.5h-1.8c-14.6,16.5-36.6,25.6-58.5,25.6   c-60.3,0-109.7-49.4-109.7-109.7s49.4-109.7,109.7-109.7c21.9,0,42.1,9.1,58.5,23.8h1.8v-18.3L2554.5,1238.9z M2510.6,1343.1   c3.7-34.7-21.9-64-56.7-67.7h-1.8c-34.7,1.8-62.2,31.1-60.3,65.8l0,0c-1.8,34.7,25.6,64,60.3,65.8c0,0,0,0,1.8,0   c34.7-1.8,60.3-29.3,58.5-64C2510.6,1343.1,2510.6,1343.1,2510.6,1343.1z"/>
	<path class="st15" d="M2638.6,1121.9v321.8h-47.5v-321.8H2638.6z"/>
	<path class="st13" d="M2829.9,1377.9l36.6,25.6c-20.1,31.1-54.9,49.4-91.4,49.4c-58.5,0-106-45.7-107.9-104.2c0-1.8,0-3.7,0-5.5   c0-65.8,45.7-109.7,102.4-109.7c42.1,1.8,80.5,29.3,93.2,69.5l5.5,12.8l-146.3,60.3c9.1,20.1,31.1,34.7,53,32.9   C2798.9,1409,2819,1398,2829.9,1377.9z M2716.6,1339.5l98.7-40.2c-7.3-14.6-23.8-23.8-40.2-23.8   C2740.3,1275.5,2714.8,1304.7,2716.6,1339.5C2714.8,1337.7,2714.8,1337.7,2716.6,1339.5z"/>
</g>
<g>
	<path class="st16" d="M1538,1829.3v-329.1h51.9l159.5,255.3h2l-2-63.8v-191.5h41.9v329.1h-43.9l-167.5-269.2h-2l2,63.8v203.4H1538   V1829.3z"/>
	<path class="st16" d="M1950.8,1835.3c-31.9,2-61.8-12-83.8-33.9c-21.9-23.9-33.9-53.8-31.9-85.8c0-31.9,10-61.8,29.9-85.8   c19.9-23.9,49.9-35.9,79.8-35.9c29.9-2,59.8,10,79.8,31.9c21.9,23.9,31.9,55.8,29.9,87.8v10H1879c0,19.9,8,39.9,21.9,53.8   c14,12,29.9,19.9,47.9,19.9c25.9,2,51.9-14,61.8-37.9l37.9,16c-8,17.9-19.9,33.9-35.9,43.9   C1994.7,1831.3,1972.7,1837.3,1950.8,1835.3z M2010.6,1689.7c-2-14-8-25.9-17.9-35.9c-14-12-29.9-17.9-47.9-17.9   c-14,0-27.9,6-39.9,14c-12,10-19.9,23.9-23.9,39.9H2010.6z"/>
	<path class="st16" d="M2331.7,1829.3h-43.9l-55.8-171.5l-55.8,171.5h-41.9l-71.8-225.4h43.9l49.9,169.5l0,0l55.8-169.5h43.9   l55.8,169.5l0,0l49.9-169.5h43.9L2331.7,1829.3z"/>
	<path class="st16" d="M2511.2,1835.3c-21.9,0-43.9-6-61.8-17.9c-16-12-27.9-27.9-35.9-45.9l37.9-16c8,25.9,33.9,43.9,61.8,41.9   c12,0,21.9-2,31.9-8c8-4,12-14,12-23.9c0-14-10-23.9-29.9-29.9l-45.9-12c-14-4-27.9-10-39.9-19.9c-14-10-19.9-25.9-19.9-41.9   c0-19.9,10-37.9,25.9-47.9c33.9-21.9,79.8-23.9,115.7-6c16,8,27.9,21.9,33.9,39.9l-35.9,16c-8-19.9-29.9-31.9-51.9-29.9   c-12,0-21.9,2-31.9,8c-8,4-12,12-12,21.9c0,12,10,21.9,29.9,25.9l43.9,10c17.9,4,33.9,12,47.9,25.9c10,12,16,25.9,16,39.9   c0,19.9-10,37.9-23.9,49.9C2557.1,1829.3,2533.1,1837.3,2511.2,1835.3z"/>
</g>
</svg>