<svg class="c-site-header__logo-desktop hidden min-tablet:block" width="180" height="32" viewBox="0 0 180 32" fill="none" xmlns="http://www.w3.org/2000/svg" aria-labelledby="svg-logo-desktop-title" focusable="false">
          <title id="svg-logo-desktop-title">Marketplace Logo</title>
          <g clip-path="url(#clip1)">
          <path d="M12.8823 19.2L19.3235 25.5708L32.1764 12.7708V0" fill="#BFD730"></path>
          <path d="M0 6.37085V32.0001L12.8824 19.2001" fill="#00C1DE"></path>
          <path d="M12.8824 19.2L0 32H32.1765V12.7708L19.3235 25.5707" fill="#2CB34A"></path>
          <path d="M152.765 17.8558C152.765 14.5827 154.265 13.0923 157.5 13.0923C160.706 13.0923 162.323 14.6119 162.294 17.9726V18.7617H159.441V18.1772C159.441 16.5699 158.882 15.8101 157.529 15.8101C156.294 15.8101 155.618 16.5699 155.618 17.9726V27.295C155.618 28.6978 156.294 29.4576 157.529 29.4576C158.882 29.4576 159.441 28.6685 159.441 27.0905V26.506H162.294V27.4411C162.265 30.7142 160.676 32.2046 157.5 32.2046C154.265 32.2046 152.765 30.7142 152.765 27.4411V17.8558Z" fill="#728472"></path>
          <path fill-rule="evenodd" clip-rule="evenodd" d="M78.5588 32H75.2941L72.0882 24.7526H69.9706V32H67.1176V13.3261H73C76.2941 13.3261 77.7059 14.6704 77.7059 17.8558V20.2229C77.7059 22.2685 76.8823 23.7005 75.2941 24.3434L75.0882 24.4311L78.5588 32ZM72.7941 15.8393H70V22.2393H72.7941C74.1764 22.2393 74.8529 21.5379 74.8529 20.0768V18.0019C74.8529 16.5407 74.1764 15.8393 72.7941 15.8393Z" fill="#728472"></path>
          <path d="M83.8235 13.3261H80.9412V32H83.8235V13.3261Z" fill="#728472"></path>
          <path d="M92.0588 32H88.7941L84.2647 22.4147L88.6764 13.3261H91.9117L87.3823 22.3854L87.3235 22.4731L92.0588 32Z" fill="#728472"></path>
          <path d="M102.882 13.3261V15.8393H96.8235V21.2457H102.382V23.7882H96.8235V29.4576H102.882V32H93.9706V13.3261H102.882Z" fill="#728472"></path>
          <path d="M104.618 13.3261H114.765V15.8393H111.118V32H108.265V15.8393H104.618V13.3261Z" fill="#728472"></path>
          <path fill-rule="evenodd" clip-rule="evenodd" d="M122.5 13.3261C125.794 13.3261 127.206 14.6704 127.206 17.8558V20.2229C127.206 23.1745 125.529 24.7526 122.353 24.7526H119.765V32H116.912V13.3261H122.5ZM122.294 22.2393C123.676 22.2393 124.353 21.5379 124.353 20.0768V18.0019C124.353 16.5407 123.676 15.8393 122.294 15.8393H119.794V22.2393H122.294Z" fill="#728472"></path>
          <path d="M129.588 32V13.3261H132.529V29.3699H138.235L137.647 32H129.588Z" fill="#728472"></path>
          <path fill-rule="evenodd" clip-rule="evenodd" d="M148.412 32L147.559 27.7626H143.029L142.176 32H139.265L143.618 13.3261H146.971L151.353 32H148.412ZM147.059 25.3078L145.294 16.8037L143.529 25.3078H147.059Z" fill="#728472"></path>
          <path fill-rule="evenodd" clip-rule="evenodd" d="M62.4706 32L61.6176 27.7626H57.0882L56.2353 32H53.2941L57.6764 13.3261H61.0294L65.4117 32H62.4706ZM61.1176 25.3078L59.3529 16.8037L57.5882 25.3078H61.1176Z" fill="#728472"></path>
          <path d="M48.9412 32V19.1708L45.2647 27.4704L41.6176 19.1708V32H38.9117V13.3261H41.8823L45.2647 21.1873L48.6764 13.3261H51.647V32H48.9412Z" fill="#728472"></path>
          <path d="M173.412 13.3259V15.8392H167.324V21.2748H172.882V23.7296H167.324V29.4574H173.412V31.9999H164.471V13.3259H173.412Z" fill="#728472"></path>
          <path fill-rule="evenodd" clip-rule="evenodd" d="M177.647 15.6638H177.941L178.383 16.2775H178.854L178.354 15.5762C178.529 15.4885 178.618 15.3131 178.618 15.1086V14.904C178.618 14.5533 178.412 14.378 178 14.378H177.235V16.2775H177.647V15.6638ZM177.676 14.7579H178C178.176 14.7579 178.235 14.7871 178.235 14.9332V15.0794C178.235 15.2255 178.176 15.2839 178 15.2839H177.676V14.7579Z" fill="#728472"></path>
          <path fill-rule="evenodd" clip-rule="evenodd" d="M180 15.4008C180 14.2319 179.176 13.3259 177.912 13.3259C176.647 13.3259 175.853 14.2319 175.853 15.4008C175.853 16.5405 176.647 17.4757 177.912 17.4757C179.206 17.4757 180 16.5405 180 15.4008ZM179.382 15.3716C179.382 16.1899 178.912 16.8912 177.912 16.8912C176.941 16.8912 176.471 16.1899 176.441 15.3716C176.441 14.5533 176.912 13.852 177.912 13.852C178.912 13.852 179.382 14.5533 179.382 15.3716Z" fill="#728472"></path>
          </g>
          <defs>
          <clipPath id="clip1">
          <rect width="180" height="32" fill="white"></rect>
          </clipPath>
          </defs>
        </svg>