<svg xmlns="http://www.w3.org/2000/svg" xmlns:xlink="http://www.w3.org/1999/xlink" version="1.1" id="Layer_1" x="0px" y="0px" style="enable-background:new 0 0 3000 3000;" xml:space="preserve" viewBox="66.9 586.42 2862.8 1853.4">
<style type="text/css">
	.st0{fill:url(#SVGID_1_);}
	.st1{fill:url(#SVGID_2_);}
	.st2{fill:url(#SVGID_3_);}
	.st3{fill:#049BF9;}
	.st4{fill:#A9DDF7;}
</style>
<image style="display:none;overflow:visible;" width="135" height="89" xlink:href="E47FF689.png" transform="matrix(21.4243 0 0 21.4243 53.8582 546.6177)">
</image>
<g>
	<g>
		<path d="M945.4,1005.2l-256.9,14.1c0,0-15.1-141.9-84.7-175.1c-86.1-40.9-192,8.5-197.6,87.5c2.8,70.6,36.7,121.4,107.3,135.5    c70.6,14.1,344.5,93.2,432,268.2c82.6,192.9,39.5,429.2-73.4,539.3S505,2033,324.3,1942.6c-180.7-90.4-217.4-362.4-217.4-414.1    c79.1-0.9,282.4,0,282.4,0s18.2,202.4,154.5,213.6c136.3,11.3,167.4-129.9,161.7-180.7c-5.6-50.8-63.7-127-161.7-149.6    c-98-22.6-329.6-124.3-377.6-288s21.2-373.4,163.8-451.8c135.9-74.7,410.1-110.1,550.6,84.7C937,827.4,945.4,1005.2,945.4,1005.2z    "/>
		<polygon points="1015.3,1961.7 1288.5,1961.7 1288.5,1207.8 1659.1,1961.7 1934.4,1961.7 1934.4,636.1 1669.7,636.1     1669.7,1394.2 1282.2,636.1 1021.7,636.1   "/>
		<polygon points="2010.6,1964.1 2283.8,1964.1 2283.8,1210.2 2654.4,1964.1 2929.7,1964.1 2929.7,638.4 2665,638.4 2665,1396.5     2277.4,638.4 2017,638.4   "/>
	</g>
	<g>
		<linearGradient id="SVGID_1_" gradientUnits="userSpaceOnUse" x1="506.2609" y1="618.1196" x2="508.3102" y2="1961.8571">
			<stop offset="0" style="stop-color:#F9F9F9"/>
			<stop offset="6.981254e-02" style="stop-color:#EEEFEF"/>
			<stop offset="0.3422" style="stop-color:#CACACB"/>
			<stop offset="0.5963" style="stop-color:#B0B0B2"/>
			<stop offset="0.8232" style="stop-color:#A0A1A2"/>
			<stop offset="1" style="stop-color:#9A9B9D"/>
		</linearGradient>
		<path class="st0" d="M905.4,979.2l-256.9,14.1c0,0-15.1-141.9-84.7-175.1c-86.1-40.9-192,8.5-197.6,87.5    c2.8,70.6,36.7,121.4,107.3,135.5c70.6,14.1,344.5,93.2,432,268.2c82.6,192.9,39.5,429.2-73.4,539.3S465,2007,284.3,1916.6    c-180.7-90.4-217.4-362.4-217.4-414.1c79.1-0.9,282.4,0,282.4,0s18.2,202.4,154.5,213.6c136.3,11.3,167.4-129.9,161.7-180.7    c-5.6-50.8-63.7-127-161.7-149.6c-98-22.6-329.6-124.3-377.6-288s21.2-373.4,163.8-451.8c135.9-74.7,410.1-110.1,550.6,84.7    C897,801.4,905.4,979.2,905.4,979.2z"/>
		<linearGradient id="SVGID_2_" gradientUnits="userSpaceOnUse" x1="1442.9866" y1="653.934" x2="1432.3909" y2="1978.3141">
			<stop offset="0" style="stop-color:#F9F9F9"/>
			<stop offset="6.981254e-02" style="stop-color:#EEEFEF"/>
			<stop offset="0.3422" style="stop-color:#CACACB"/>
			<stop offset="0.5963" style="stop-color:#B0B0B2"/>
			<stop offset="0.8232" style="stop-color:#A0A1A2"/>
			<stop offset="1" style="stop-color:#9A9B9D"/>
		</linearGradient>
		<polygon class="st1" points="975.3,1935.7 1248.5,1935.7 1248.5,1181.8 1619.1,1935.7 1894.4,1935.7 1894.4,610.1 1629.7,610.1     1629.7,1368.2 1242.2,610.1 981.7,610.1   "/>
		<linearGradient id="SVGID_3_" gradientUnits="userSpaceOnUse" x1="2442.0349" y1="633.6377" x2="2424.0784" y2="1956.9655">
			<stop offset="0" style="stop-color:#F9F9F9"/>
			<stop offset="6.981254e-02" style="stop-color:#EEEFEF"/>
			<stop offset="0.3422" style="stop-color:#CACACB"/>
			<stop offset="0.5963" style="stop-color:#B0B0B2"/>
			<stop offset="0.8232" style="stop-color:#A0A1A2"/>
			<stop offset="1" style="stop-color:#9A9B9D"/>
		</linearGradient>
		<polygon class="st2" points="1970.6,1938.1 2243.8,1938.1 2243.8,1184.2 2614.4,1938.1 2889.7,1938.1 2889.7,612.4 2625,612.4     2625,1370.5 2237.4,612.4 1977,612.4   "/>
	</g>
</g>
<path class="st3" d="M263.5,1975.2c0,0,324,311.3,696.7,180c372.7-131.3,1173.2-567.5,1668.7-148.2  c-152.5-46.6-614.1-93.2-974.1,118.6C1337.2,2320.4,570.6,2794.8,263.5,1975.2z"/>
<path class="st4" d="M247.5,1916.2c0,0,324,311.3,696.7,180c372.7-131.3,1173.2-567.5,1668.7-148.2  c-152.5-46.6-614.1-93.2-974.1,118.6C1321.2,2261.4,554.6,2735.8,247.5,1916.2z"/>
</svg>