<svg xmlns="http://www.w3.org/2000/svg" xmlns:xlink="http://www.w3.org/1999/xlink" width="340" height="54" viewBox="0 0 255 40.5" xmlns:v="https://vecta.io/nano"><style><![CDATA[.B{overflow:visible}.C{stroke:none}.D{fill:rgb(100%,100%,100%)}.E{fill:rgb(21.958923%,71.369934%,100%)}]]></style><defs><symbol id="A" class="B"><path d="M2.641-23.891h11.594c1.988 0 3.535.563 4.641 1.688 1.102 1.117 1.656 2.594 1.656 4.438 0 .918-.121 1.699-.359 2.344-.242.637-.562 1.156-.969 1.563a3.73 3.73 0 0 1-1.406.906c-.531.199-1.105.309-1.719.328v.203c.57 0 1.172.105 1.797.313.633.199 1.211.523 1.734.969s.957 1.027 1.313 1.734.531 1.574.531 2.594c0 .938-.156 1.824-.469 2.656-.305.836-.73 1.559-1.281 2.172A5.85 5.85 0 0 1 17.75-.531C17-.176 16.18 0 15.297 0H2.641zM7.844-4.375h5.984c.676 0 1.211-.187 1.609-.562.406-.383.609-.914.609-1.594v-1.172c0-.676-.203-1.203-.609-1.578-.398-.383-.934-.578-1.609-.578H7.844zm0-9.719H13c.688 0 1.223-.191 1.609-.578.383-.395.578-.93.578-1.609v-1.031c0-.687-.195-1.223-.578-1.609S13.688-19.5 13-19.5H7.844zm0 0" class="C"/></symbol><symbol id="B" class="B"><path d="M7.844 0H2.641v-23.891h11.328c1.094 0 2.082.184 2.969.547a6.38 6.38 0 0 1 2.266 1.563 7.09 7.09 0 0 1 1.469 2.422c.344.93.516 1.965.516 3.109 0 1.617-.359 3.027-1.078 4.234s-1.812 2.09-3.281 2.641L21.531 0h-5.797l-4.172-8.766H7.844zm5.469-13.141c.77 0 1.379-.195 1.828-.594.445-.406.672-.992.672-1.766V-17c0-.781-.227-1.367-.672-1.766-.449-.406-1.059-.609-1.828-.609H7.844v6.234zm0 0" class="C"/></symbol><symbol id="C" class="B"><path d="M17.344 0l-1.703-5.687H7.672L5.953 0H.688l7.875-23.891h6.422L22.75 0zm-5.641-19.156h-.172l-2.641 9.063h5.484zm0 0" class="C"/></symbol><symbol id="D" class="B"><path d="M9.922-11.297l-2.297-4.781h-.094V0H2.641v-23.891h5.672l6.531 11.297 2.297 4.797h.109v-16.094h4.891V0h-5.687zm0 0" class="C"/></symbol><symbol id="E" class="B"><path d="M2.641-23.891h9c1.57 0 3.004.258 4.297.766a8.77 8.77 0 0 1 3.328 2.234c.914.992 1.625 2.234 2.125 3.734.5 1.492.75 3.23.75 5.219 0 1.98-.25 3.719-.75 5.219-.5 1.492-1.211 2.734-2.125 3.734-.918.992-2.027 1.734-3.328 2.234-1.293.5-2.727.75-4.297.75h-9zm9 19.266c1.551 0 2.77-.43 3.656-1.297s1.328-2.254 1.328-4.172v-3.703c0-1.914-.445-3.305-1.328-4.172s-2.105-1.297-3.656-1.297H7.844v14.641zm0 0" class="C"/></symbol><symbol id="F" class="B"><path d="M2.641 0v-23.891h11.281c1.125 0 2.129.195 3.016.578a6.64 6.64 0 0 1 2.266 1.563c.633.656 1.125 1.461 1.469 2.406.344.938.516 1.969.516 3.094 0 1.137-.172 2.172-.516 3.109s-.836 1.742-1.469 2.406c-.625.656-1.383 1.172-2.266 1.547s-1.891.563-3.016.563H7.844V0zm5.203-13.141h5.469c.77 0 1.379-.195 1.828-.594.445-.406.672-.992.672-1.766V-17c0-.781-.227-1.367-.672-1.766-.449-.406-1.059-.609-1.828-.609H7.844zm0 0" class="C"/></symbol><symbol id="G" class="B"><path d="M7.563-23.891v14.656c0 1.688.328 2.949.984 3.781.664.836 1.773 1.25 3.328 1.25s2.656-.414 3.313-1.25c.664-.832 1-2.094 1-3.781v-14.656h5.063v14.109c0 1.75-.168 3.273-.5 4.563s-.875 2.355-1.625 3.188-1.719 1.449-2.906 1.844-2.637.594-4.344.594S8.719.207 7.531-.187 5.367-1.195 4.609-2.031c-.75-.832-1.293-1.895-1.625-3.187C2.66-6.508 2.5-8.031 2.5-9.781v-14.109zm0 0" class="C"/></symbol><symbol id="H" class="B"><path d="M10.375.406C8.27.406 6.488.047 5.031-.672S2.328-2.316 1.297-3.453l3.422-3.453c1.625 1.824 3.617 2.734 5.984 2.734 1.281 0 2.227-.258 2.844-.781.613-.531.922-1.227.922-2.094 0-.664-.184-1.219-.547-1.656-.367-.445-1.105-.75-2.219-.906l-2.359-.312c-2.531-.32-4.387-1.086-5.562-2.297s-1.766-2.816-1.766-4.828c0-1.07.203-2.051.609-2.937.414-.883 1.004-1.645 1.766-2.281.77-.645 1.707-1.145 2.813-1.5s2.363-.531 3.781-.531c1.801 0 3.383.289 4.75.859 1.375.574 2.551 1.406 3.531 2.5l-3.453 3.484a6.95 6.95 0 0 0-2.078-1.609c-.805-.426-1.824-.641-3.062-.641-1.156 0-2.023.203-2.594.609s-.859.977-.859 1.703c0 .824.223 1.418.672 1.781s1.172.633 2.172.797l2.359.375c2.457.387 4.281 1.148 5.469 2.281 1.188 1.125 1.781 2.727 1.781 4.797 0 1.148-.211 2.199-.625 3.156-.406.961-1.008 1.781-1.797 2.469-.781.68-1.758 1.203-2.922 1.578-1.156.375-2.477.563-3.953.563zm0 0" class="C"/></symbol><symbol id="I" class="B"><path d="M16.938-9.781H7.844V0H2.641v-23.891h5.203v9.516h9.094v-9.516h5.203V0h-5.203zm0 0" class="C"/></symbol><clipPath id="J"><path d="M1.555 2.098h33.098v33.098H1.555zm0 0"/></clipPath><clipPath id="K"><path d="M34.652 18.648l-.078 1.621-.238 1.605-.395 1.578a16.54 16.54 0 0 1-.547 1.527l-.695 1.469c-.254.477-.535.941-.836 1.391a15.84 15.84 0 0 1-.965 1.305c-.344.422-.707.82-1.094 1.203s-.781.75-1.203 1.094a15.84 15.84 0 0 1-1.305.965l-1.391.836-1.469.695-1.527.547-1.578.395-1.605.238c-.539.055-1.082.078-1.621.078a16.16 16.16 0 0 1-1.625-.078l-1.605-.238a16.86 16.86 0 0 1-1.574-.395c-.52-.156-1.027-.34-1.531-.547s-.988-.441-1.465-.695a15.67 15.67 0 0 1-1.395-.836l-1.305-.965-1.203-1.094-1.09-1.203-.969-1.305-.836-1.391-.691-1.469c-.211-.5-.391-1.012-.551-1.527l-.395-1.578-.238-1.605-.078-1.621.078-1.625.238-1.605.395-1.574.551-1.531.691-1.465.836-1.395.969-1.305 1.09-1.203 1.203-1.09 1.305-.969 1.395-.836 1.465-.691a15.54 15.54 0 0 1 1.531-.547 16.88 16.88 0 0 1 1.574-.398l1.605-.238 1.625-.078 1.621.078 1.605.238 1.578.398 1.527.547 1.469.691 1.391.836c.453.301.887.625 1.305.969a15.93 15.93 0 0 1 1.203 1.09c.387.383.75.785 1.094 1.203a16.53 16.53 0 0 1 .965 1.305l.836 1.395.695 1.465.547 1.531.395 1.574.238 1.605a16.16 16.16 0 0 1 .078 1.625zm0 0"/></clipPath><clipPath id="L"><path d="M10.57 1.418h16.211V38.57H10.57zm0 0"/></clipPath><clipPath id="M"><path d="M233 8h20.445v25H233zm0 0"/></clipPath></defs><g clip-path="url(#J)"><g clip-path="url(#K)"><path d="M1.555 2.098v33.098h33.098V2.098zm0 0" fill="rgb(54.899597%,32.199097%,100%)"/></g></g><g clip-path="url(#L)" class="D"><path d="M12.109 38.48a.76.76 0 0 1-.316-.07c-.332-.164-.496-.551-.379-.902l5.547-16.773h-5.582c-.246 0-.477-.125-.613-.332s-.16-.465-.066-.691l7.336-17.75c.113-.277.383-.457.676-.457h6.969a.74.74 0 0 1 .617.336c.137.211.156.477.055.707l-5.773 13.008h5.469c.27 0 .52.152.648.391s.113.527-.031.754L12.723 38.148c-.137.215-.371.332-.613.332zm0 0"/></g><g class="D"><use xlink:href="#A" x="45.479" y="32.499"/><use xlink:href="#B" x="68.302" y="32.499"/><use xlink:href="#C" x="91.364" y="32.499"/><use xlink:href="#D" x="114.803" y="32.499"/><use xlink:href="#E" x="139.577" y="32.499"/></g><g class="E"><use xlink:href="#F" x="163.424" y="32.499"/><use xlink:href="#G" x="185.871" y="32.499"/><use xlink:href="#H" x="209.618" y="32.499"/></g><g clip-path="url(#M)" class="E"><use xlink:href="#I" x="230.97" y="32.499"/></g></svg>