<svg xmlns="http://www.w3.org/2000/svg" viewBox="0 0 3099.2 534.98"><defs><style>.cls-1{fill:#3a1459;}.cls-2{fill:#d56184;}</style></defs><g id="Layer_5" data-name="Layer 5"><path class="cls-1" d="M564.47,205.89c20.78-22.83,34.86-38.07,35.73-39.25-1.84,1-17.49,13.57-41.93,32.54a148.38,148.38,0,0,0-254,111.75S293.45,446.06,183.79,451.81L439.68,451A148.38,148.38,0,0,0,564.47,205.89Zm-155,107.45c-8.61,4.94-21.83,10.57-29.85,1.57-3.44-3.86-5.11-9.36-5.73-14.36-3-23.83.67-45.35,18.72-62a88.12,88.12,0,0,1,117.47-1.95l-86.78,67.33A120.56,120.56,0,0,1,409.51,313.34ZM512.3,367.93c-18.19,16.82-39.22,19.6-62.78,14-7.6-1.8-16.49-5.57-18.12-14.13-2.51-13.07,10.24-26.93,18.12-35.6,22.06-24.24,49-53.83,73.93-81.24A88.14,88.14,0,0,1,512.3,367.93Z"/><path class="cls-1" d="M510.12,236.56l48.15-37.38"/><path class="cls-1" d="M523.45,251l41-45.08"/><path class="cls-2" d="M599,217.63c.79-1.43,26-47.52,14.73-59.65s-59.12,9.35-60.61,10L694.65,83.17Z"/><path class="cls-1" d="M751.64,246.32H682.12v-41h189.3v41H801.91v189.3H751.64Z"/><path class="cls-1" d="M1065.78,340v95.58h-48.42V347.49c0-27-12.41-39.41-33.82-39.41-23.27,0-40,14.27-40,45v82.55H895.1V205.36h48.41V286c13-13,31.65-19.86,53.06-19.86C1036,266.18,1065.78,289.14,1065.78,340Z"/><path class="cls-1" d="M1211.31,266.18v44.69c-4-.31-7.13-.62-10.86-.62-26.69,0-44.37,14.58-44.37,46.55v78.82h-48.41v-167h46.23v22C1165.7,274.56,1185.56,266.18,1211.31,266.18Z"/><path class="cls-1" d="M1405.39,268.66v167h-45.93V415.76c-12.72,14.59-31.34,22.34-51.82,22.34-41.9,0-71.38-23.58-71.38-75.1V268.66h48.41v87.21c0,27.93,12.42,40.34,33.83,40.34,22.34,0,38.48-14.28,38.48-45V268.66Z"/><path class="cls-1" d="M1435.67,420.1l16.14-34.75c14.9,9.62,37.55,16.13,58,16.13,22.34,0,30.72-5.89,30.72-15.2,0-27.31-100.85.62-100.85-66.1,0-31.66,28.55-54,77.27-54,23,0,48.41,5.28,64.24,14.59l-16.14,34.44A95.89,95.89,0,0,0,1517,302.8c-21.72,0-31,6.83-31,15.52,0,28.55,100.85.93,100.85,66.72,0,31-28.86,53.06-78.82,53.06C1479.74,438.1,1451.19,430.35,1435.67,420.1Z"/><path class="cls-1" d="M1727.72,427.55c-9.93,7.14-24.52,10.55-39.42,10.55-39.41,0-62.37-20.17-62.37-59.89V309.63h-25.76V272.39h25.76V231.74h48.41v40.65h41.59v37.24h-41.59v68c0,14.27,7.76,22,20.79,22a32.63,32.63,0,0,0,19.55-6.2Z"/><path class="cls-1" d="M2057.9,376.35c0,37.55-29.79,59.27-86.89,59.27H1858.67V218.39H1964.8c54.31,0,82.24,22.65,82.24,56.48,0,21.72-11.18,38.48-28.87,47.79C2042.38,330.42,2057.9,349,2057.9,376.35Zm-149.27-120.1v51.21h50c24.52,0,37.86-8.69,37.86-25.76s-13.34-25.45-37.86-25.45Zm98.68,114.82c0-18.31-14-27-40-27h-58.65v53.69h58.65C1993.35,397.76,2007.31,389.69,2007.31,371.07Z"/><path class="cls-1" d="M2198.47,266.18v44.69c-4-.31-7.14-.62-10.86-.62-26.69,0-44.38,14.58-44.38,46.55v78.82h-48.41v-167h46.24v22C2152.85,274.56,2172.71,266.18,2198.47,266.18Z"/><path class="cls-1" d="M2374.11,340.35v95.27h-45.3V414.83c-9,15.2-26.38,23.27-50.9,23.27-39.1,0-62.37-21.72-62.37-50.58,0-29.48,20.79-50,71.68-50h38.48c0-20.8-12.41-32.9-38.48-32.9-17.69,0-36,5.9-48.1,15.52l-17.38-33.83c18.31-13,45.31-20.17,72-20.17C2344.63,266.18,2374.11,289.77,2374.11,340.35Zm-48.41,42.52V365.8h-33.2c-22.65,0-29.79,8.38-29.79,19.55,0,12.1,10.24,20.17,27.31,20.17C2306.15,405.52,2320.12,398.07,2325.7,382.87Z"/><path class="cls-1" d="M2586.53,340v95.58h-48.41V347.49c0-27-12.42-39.41-33.83-39.41-23.27,0-40,14.27-40,45v82.55h-48.41v-167h46.24v19.56c13-14.28,32.58-22,55.23-22C2556.74,266.18,2586.53,289.14,2586.53,340Z"/><path class="cls-1" d="M2799.41,218.39V435.62h-46.24V416.38C2741.06,431,2723.38,438.1,2701,438.1c-47.17,0-83.48-33.51-83.48-86s36.31-86,83.48-86c20.48,0,37.86,6.52,50,20.17v-68Zm-47.48,133.75c0-28.86-18.62-46.24-42.52-46.24-24.2,0-42.82,17.38-42.82,46.24s18.62,46.24,42.82,46.24C2733.31,398.38,2751.93,381,2751.93,352.14Z"/><path class="cls-1" d="M2836.23,407.69c0-18,13.35-29.79,30.11-29.79s30.1,11.79,30.1,29.79c0,17.69-13.34,30.41-30.1,30.41S2836.23,425.38,2836.23,407.69Z"/></g></svg>