<svg xmlns:dc="http://purl.org/dc/elements/1.1/" xmlns:cc="http://creativecommons.org/ns#" xmlns:rdf="http://www.w3.org/1999/02/22-rdf-syntax-ns#" xmlns:svg="http://www.w3.org/2000/svg" xmlns="http://www.w3.org/2000/svg" xml:space="preserve" id="svg2" version="1.1" viewBox="11.34 78.4 234.33 100.86"><metadata id="metadata8"><rdf:RDF><cc:Work rdf:about=""><dc:format>image/svg+xml</dc:format><dc:type rdf:resource="http://purl.org/dc/dcmitype/StillImage"/></cc:Work></rdf:RDF></metadata><defs id="defs6"/><g transform="matrix(1.3333333,0,0,-1.3333333,0,257.33333)" id="g10"><g transform="scale(0.1)" id="g12"><path id="path16" style="fill:#2e3192;fill-opacity:1;fill-rule:evenodd;stroke:none" d="m 546.938,962.645 c 0,202.175 161.285,365.735 361.187,365.735 199.145,0 359.675,-163.56 359.675,-365.735 0,-202.176 -160.53,-365.731 -359.675,-365.731 -199.902,0 -361.187,162.801 -361.187,365.731 z M 85.0391,585.555 V 1342.01 H 538.609 l 13.629,-207.48 H 298.574 v -99.19 H 506.047 V 830.891 H 298.574 V 585.555 Z m 1757.4809,2.269 -227.16,390.723 207.47,360.433 H 1593.4 l -92.38,-160.53 -93.89,160.53 H 1173.15 L 1382.89,976.273 1159.52,587.824 h 229.43 l 108.28,187.793 109.8,-187.793 z M 970.219,812.719 v 299.851 c 0,35.59 -26.504,65.88 -62.094,65.88 -32.559,0 -60.578,-30.29 -60.578,-65.88 V 812.719 c 0,-33.321 28.019,-61.332 60.578,-61.332 35.59,0 62.094,24.23 62.094,61.332"/></g></g></svg>