<svg xmlns="http://www.w3.org/2000/svg" viewBox="0 0 473.12 225.87"><defs><style>.cls-1{fill:#00b742;}</style></defs><g id="Capa_2" data-name="Capa 2"><g id="Capa_2-2" data-name="Capa 2"><path d="M211.49,27.4,210,34.78h-.45c-1.89-4.13-7.16-9.76-18.78-9.76-18.8,0-37.93,14.51-42.29,37.42-3.62,20,6,37.68,28.3,37.68,8.14,0,17.51-3.26,22.39-10h.39l-1.3,7.51H219l13-70.12Zm-6.83,34.94c-1.4,6.87-7.91,18-20.92,18s-15.39-11.29-14.25-17.8a21.69,21.69,0,0,1,20.75-18C202.15,44.67,206.15,54.08,204.66,62.34Z"/><path d="M243.83,27.4h19.52L262,34.78h.39A21.91,21.91,0,0,1,281.87,25l-4,21.15c-9.76,0-17,2.15-18.91,13l-7.12,38.43H230.79Z"/><polygon points="295.89 0 316.91 0 307.02 52.81 307.41 52.81 331.68 27.4 356.35 27.4 324.3 58.21 342.71 97.51 318.93 97.51 305.39 63.71 305.04 63.71 298.88 97.51 277.74 97.51 295.89 0"/><path d="M390,24.92c-21.28,0-40.18,18.26-43.7,37.78-3.87,20.79,10.16,37.19,30.3,37.19a38.84,38.84,0,0,0,21-6.51,52.25,52.25,0,0,0,17.54-17.93H393.7a18.25,18.25,0,0,1-14,6.51c-8.13,0-14.25-4.88-13.89-13.24h52.65a27.9,27.9,0,0,0,1.49-5.53C423.92,41.94,411.4,24.92,390,24.92ZM368.74,54.69a19.73,19.73,0,0,1,18.26-12c10.9,0,13.53,7.87,13.53,12Z"/><polygon points="120.78 0 83.72 55.57 83.49 55.57 83.49 0 65.59 0 0 97.51 25.41 97.51 62.21 41.94 62.57 41.94 62.57 97.51 80.59 97.51 117.39 41.94 117.78 41.94 117.78 97.51 138.8 97.51 138.8 0 120.78 0"/><path d="M473.12,27.4H459.85l3.87-20.89H445.33l-1.49,8c-1.63,9.14-7.39,11.91-15,12.76h0l-3.26,15.91H436L425.94,97.61h20.89l10-54.21h13.38Z"/><path class="cls-1" d="M320.39,196.85c-6.89,15.87-23.29,28.89-42.29,28.89-21.28,0-34.43-16.76-30.69-37.68s22.78-37.29,43.93-37.29c18.54,0,31.3,12.4,31.69,29.55H301.75a12.45,12.45,0,0,0-13.41-9.76c-9.76-.49-18,7.64-19.91,17.76s3.26,17.9,13.41,17.9a20,20,0,0,0,16.88-9.37h21.67ZM146.71,101.12l-40.83,24.76h11.55l-37,55.58h-.39V125.88h-18l-37,55.58h-.36V125.88h-21v97.61H22l36.86-55.7h.39v55.57h18l65.33-97.61h10.61Zm39.76,122.24H165.68l1.4-7.51h-.39c-4.88,6.9-14.25,10-22.39,10-22.28,0-31.92-17.51-28.3-37.68,4.13-22.77,23.42-37.42,42.29-37.42,11.49,0,16.89,5.63,18.78,9.76h.36l1.4-7.35h20.79Zm-35.3-17c13,0,19.52-11.26,20.92-18,1.5-8.39-2.51-17.76-14.41-17.76a21.83,21.83,0,0,0-20.73,18c-1.14,6.51,1.5,17.77,14.25,17.77Zm100.77-53.17h-13l3.87-20.79H224.28l-1.53,8c-1.63,9.11-7.35,11.87-15,12.75h-.26l-3,15.91H215l-10.19,54.27h20.93l10-54.17h13.37Zm88.24-27.39h20.88l-6.5,34.78H355a21.91,21.91,0,0,1,19.75-9.76c6.51,0,14.28,2.5,17.8,7.87,4.49,6.9,4,13,1.62,25.54L387,223.27H366.08l7-38.17c.65-3.25,2.64-14.77-8.49-14.77-11.78,0-13.76,10.51-14.42,14L343,223.14H322.41Z"/></g></g></svg>